<?xml version="1.0" encoding="UTF-8"?>
<svg width="108px" height="118px" viewBox="0 0 108 118" version="1.1" xmlns="http://www.w3.org/2000/svg" xmlns:xlink="http://www.w3.org/1999/xlink">
    <title>EAB3A59B-1C6E-4EC0-8325-937D8BE4A9D0</title>
    <g id="Page-1" stroke="none" stroke-width="1" fill="none" fill-rule="evenodd">
        <g id="dining-home-final" transform="translate(-270.000000, -73.000000)">
            <g id="dining-logo" transform="translate(270.000000, 73.000000)">
                <path d="M68.9938861,50.9646968 C68.0944073,51.2428903 67.1679981,51.4596645 66.232612,51.6493419 C67.7927857,50.8653419 69.2254884,49.9765677 70.4696776,48.9794065 C77.7606622,43.133729 79.575778,33.2632774 76.178944,24.6627613 C75.3135772,22.4751484 74.0801602,20.5512774 72.5900058,18.869471 C65.0099672,-1.02498065 37.3056622,8.42276129 27.2785386,24.3466323 C27.3270135,23.5319226 27.4131911,22.7280516 27.5478436,21.9368258 C30.1116274,14.1058581 37.1404884,7.23953548 46.0544846,5.01037419 C46.7636544,4.83153548 46.5769363,3.70250323 45.8551988,3.87411613 C41.3596004,4.93811613 37.0022452,7.2539871 33.398944,10.3917935 C36.9052954,6.71566452 41.7258552,4.05656774 47.4440985,3.0052129 C59.4497162,0.797729032 74.3656236,5.30843871 81.5309324,15.637729 C90.559832,28.6514065 83.6602375,46.4160516 68.9938861,50.9646968 M47.8193301,52.7512774 C38.0040598,52.2237935 26.2767239,47.0970839 26.3071857,36.5293419 C27.7614923,39.7195355 29.9985193,42.4906323 32.7364537,44.8390194 C34.7346969,46.8170839 36.9735193,48.2766968 39.3523803,49.2720516 C42.2106042,50.7623742 45.293249,51.9166968 48.4153919,52.765729 C48.2179015,52.7585032 48.0132297,52.7621161 47.8193301,52.7512774 M35.0740212,39.4666323 C44.1675541,48.2748903 55.42989,44.6872774 62.3348707,36.4805677 C67.1895425,34.1791484 70.6097162,30.1670194 69.5971293,24.373729 C69.3368012,22.8888258 68.8502568,21.6766968 68.2021293,20.7048258 C68.1554498,20.0707613 68.0746583,19.4547613 67.9597548,18.8532129 C68.7012413,19.4385032 69.4157973,20.0508903 70.0729015,20.7156645 C71.905971,26.6317935 70.8090019,33.9190194 66.5126892,39.6165677 C56.0816081,53.4449548 36.027361,51.1868903 29.3126892,35.4834065 C28.5227278,33.6390194 27.9733456,31.8000516 27.6358166,29.9863742 C28.4329595,27.8999226 29.5281332,25.8965677 30.8567046,24.0142452 C29.2408745,29.0723097 30.2049865,34.7499871 35.0740212,39.4666323 M35.3882104,18.8604387 C36.8855463,17.469471 38.4977857,16.197729 40.2015888,15.0903742 C41.6684035,14.3569548 43.2734614,13.8114065 44.9736737,13.453729 C37.1368977,19.9226323 31.950083,32.4142452 43.8533649,37.4957935 C47.4405077,39.0276645 52.7440212,39.2444387 57.6220328,38.1063742 C55.7799865,39.7701161 53.6740212,41.0797935 51.2807973,41.6831484 C42.5678822,43.8761806 32.003944,37.2916645 32.3037703,27.5548903 C32.4132876,23.9690839 33.5587317,21.0932129 35.3882104,18.8604387 M65.625778,18.3979871 C59.9506236,15.4914065 50.4890405,20.5530839 50.2017819,28.1311484 C50.1820328,28.6785032 50.4674961,29.2005677 50.9935386,29.397471 C57.1193301,31.6898581 61.9327085,29.7479226 64.676029,23.7830194 C64.891473,23.3151484 64.6598707,22.6413419 64.2379595,22.3685677 C62.5898127,21.3063742 62.620334,21.3768258 60.6274768,20.9541161 C59.1247548,20.6343742 58.9290598,23.013471 60.403056,23.3386323 C58.1839826,22.8490839 51.6865502,28.8717935 54.0600251,24.2147613 C54.7727857,22.8129548 56.0367239,21.7959226 57.3994073,21.0625032 C60.173249,19.5685677 63.6939633,19.9533419 65.7729981,22.2475355 C65.5288282,25.1667613 64.5898514,28.1456 63.374388,30.4668903 C62.7118977,31.7277935 61.9434807,32.9941161 61.0799093,34.2080516 C59.4156042,35.0010839 57.6920521,35.5502452 56.2737124,35.837471 C52.2305463,36.6557935 47.2501988,36.7804387 43.5804691,34.6018581 C36.3972066,30.3386323 39.4906236,21.5827613 44.4440405,16.9293419 C46.0311448,15.4390194 48.029388,14.0083097 50.1946004,12.9388746 C55.3455077,12.933471 60.780083,14.3280516 65.2828629,16.9979871 C65.4264923,17.4514065 65.5396004,17.917471 65.625778,18.3979871 M67.3906236,27.4176 C67.2577664,28.3352774 66.9310097,29.1879226 66.4247162,29.9646968 C66.4803726,29.8400516 66.5414151,29.7172129 66.5952761,29.5925677 C66.9076699,28.8663742 67.1679981,28.1401806 67.3906236,27.4176 M75.1986737,36.3252129 C73.8557394,45.7259871 65.483944,50.525729 56.7853919,52.149729 C54.3311255,51.9528258 51.8678822,51.5265032 49.4567046,50.8924387 C61.8950058,50.1012129 74.1717239,40.0302452 74.1322259,26.8738581 C75.2471486,29.6576 75.7013764,32.8080516 75.1986737,36.3252129 M87.5579788,24.5652129 C85.3586544,9.71437419 70.3852954,1.46069677 56.648944,0.266632258 C40.0220521,-1.17852903 25.9912606,10.1587613 24.8547934,24.3430194 C24.4777664,26.2235355 24.3718398,28.1618581 24.5657394,30.1290839 C23.2784614,34.2152774 23.222805,38.5092129 24.975083,42.7146323 C29.8584807,54.4439226 45.7779981,57.3270194 58.4999672,54.3843097 C60.0242336,54.4547613 61.514388,54.4565677 62.9381139,54.3572129 C78.4931718,53.2769548 89.9099093,40.429471 87.5579788,24.5652129" id="Fill-1" fill="#D45D00"></path>
                <path d="M16.1565957,10.5412156 C15.0269267,13.1945144 15.221362,16.1408043 14.923876,18.9360491 C14.7430512,20.6357618 14.4164,22.4737809 13.0670191,23.7385563 C12.520656,24.2517458 11.4084862,24.9414579 10.3138156,25.2854041 C10.3507583,22.9614928 10.9962834,20.5556897 11.4726498,18.3245893 C11.7895794,16.8323363 13.0320208,14.0571095 12.5226004,12.5302798 C12.2270587,11.6476667 10.69102,11.8787839 10.9826729,12.7832349 C11.1557203,13.320082 10.6949087,14.4538304 10.5704702,15.0143352 C10.2515963,16.459273 9.90355715,17.8987513 9.58662765,19.3473287 C9.30275214,20.6557798 8.75833336,22.3190961 8.57361985,23.8968808 C8.47056915,23.9969709 8.39279504,24.1261782 8.37918457,24.3117999 C8.35196363,24.6484668 8.30918787,24.9851336 8.27418952,25.3236203 C5.09322837,23.8186285 7.6286644,15.321885 7.85420932,12.7504781 C7.92615037,11.9315587 6.68370895,11.8551263 6.52232767,12.6321898 C5.8456929,15.8951285 2.72889539,25.7640169 8.0486446,27.1106844 C6.81981364,35.4764007 3.52024697,43.8512162 6.13540146,52.2060137 C6.36094639,52.9357619 7.46339441,53.3615999 7.9786479,52.5899959 C10.2107649,49.257904 10.6385225,45.9003345 10.0688271,42.0514134 C9.98910868,41.5091068 9.5516293,41.3034671 9.11609428,41.3398635 L9.11609428,31.6474977 C9.3746932,30.1752626 9.60412683,28.7012078 9.73050976,27.216234 C12.1862273,26.9778374 14.7274964,25.1816743 15.7716138,23.3236372 C17.7976294,19.7203919 17.1268277,14.8523712 17.9803986,10.9306573 C18.1981661,9.92065671 16.5376888,9.64586377 16.1565957,10.5412156" id="Fill-4" fill="#D45D00"></path>
                <path d="M101.671294,31.4848906 C105.083786,26.3568691 105.627189,20.3177595 106.982913,13.8861258 C107.188775,12.9138184 105.471401,12.5248954 105.222883,13.4954023 C103.818939,18.9853382 101.257714,25.4385787 99.4123719,31.9782466 C99.2751304,32.0988847 99.1397434,32.2267251 98.9932288,32.3239559 C96.4672424,34.0236934 97.5540471,31.1949989 97.873041,28.782236 C98.707618,22.4892462 101.843773,14.5163251 106.430237,9.9536824 C106.912437,9.47293039 106.239212,8.66987646 105.723629,9.14522677 C99.5533227,14.8458293 94.4141829,27.0338832 96.4542601,35.2426788 C96.6044839,35.844069 97.3426209,36.1735731 97.8637679,35.7378354 C98.1234141,35.5181659 98.3570957,35.2912942 98.6000503,35.0680236 C97.1386132,41.1593496 96.5525547,47.2074621 98.3756418,52.5083382 C98.6946357,53.4356314 100.272914,52.931472 100.059633,51.9879737 C98.5444118,45.297058 99.7573304,38.3450598 101.671294,31.4848906" id="Fill-6" fill="#D45D00"></path>
                <polygon id="Fill-8" fill="#5C616C" points="6.36721886 68.7023393 -0.000188552189 68.7023393 -0.000188552189 63.70928 19.6224377 63.70928 19.6224377 68.7023393 13.2531448 68.7023393 13.2531448 88.9636578 6.36721886 88.9636578"></polygon>
                <path d="M44,78.856278 C44,85.8502243 39.5421486,89 33.0009154,89 C26.4578514,89 22,85.8502243 22,78.856278 L22,63 L28.6858617,63 L28.6858617,77.7211737 C28.6858617,81.0894523 29.5847549,83.9466562 33.0009154,83.9466562 C36.4152451,83.9466562 37.3141383,81.0894523 37.3141383,77.7211737 L37.3141383,63 L44,63 L44,78.856278 Z" id="Fill-11" fill="#5C616C"></path>
                <polygon id="Fill-13" fill="#5C616C" points="48 63 65 63 65 67.9163225 54.7710765 67.9163225 54.7710765 73.6162428 64.5642927 73.6162428 64.5642927 78.5325654 54.7710765 78.5325654 54.7710765 89 48 89"></polygon>
                <polygon id="Fill-15" fill="#5C616C" points="73.1653695 68.1404767 67 68.1404767 67 63 86 63 86 68.1404767 79.8328048 68.1404767 79.8328048 89 73.1653695 89"></polygon>
                <path d="M89.0535219,81.9461114 C90.8296835,82.8963168 93.3110303,83.626533 96.1619394,83.626533 C98.3472593,83.626533 100.419448,83.1884032 100.419448,81.1419492 C100.419448,76.3890735 88.2031515,79.3875816 88.2031515,70.1018195 C88.2031515,63.95876 94.274532,62.2783384 99.4559461,62.2783384 C101.937293,62.2783384 104.380929,62.6443708 106.121266,63.2285438 L105.676283,68.4916465 C103.900121,67.689333 101.899582,67.3233005 99.9386397,67.3233005 C98.198303,67.3233005 95.3096835,67.4693438 95.3096835,69.6988141 C95.3096835,73.8305438 107.527865,71.0520249 107.527865,80.2638411 C107.527865,86.8820032 101.899582,88.6733438 96.1619394,88.6733438 C93.7560135,88.6733438 90.7561481,88.3073114 88.461468,87.5752465 L89.0535219,81.9461114 Z" id="Fill-17" fill="#5C616C"></path>
                <path d="M100.563887,109.300027 C99.3305157,107.0604 96.5921372,107.053319 94.4465846,107.922612 C92.5598198,108.687449 93.5435804,111.585685 95.5367969,111.215659 C95.9258963,111.143071 96.2911358,111.035073 96.6563753,110.921764 C97.7135509,110.881043 96.7004243,112.515174 95.2523139,112.640876 C94.0116009,112.748874 92.5726674,112.414258 91.5081503,111.791057 C89.5204399,110.624327 90.1022535,108.747644 90.810708,106.948862 C91.6714986,104.758808 95.9919698,96.7138585 99.3929184,98.2293684 C100.422563,98.6879164 101.305378,97.0838837 100.319782,96.5226493 C96.9812365,94.6211801 93.4022566,98.3515298 91.4953026,100.615942 C89.182731,103.361919 85.6881783,108.38116 87.5051988,112.090264 C89.2432983,115.643569 95.6138827,117.210422 98.910215,114.935386 C100.648314,113.733247 101.615557,111.208578 100.563887,109.300027" id="Fill-20" fill="#D45D00"></path>
                <path d="M15.2811566,94.1244235 C15.47107,93.0250726 13.8070664,92.4979095 13.2843522,93.6385329 C13.2481782,93.721078 13.2174303,93.8054992 13.1794476,93.8861682 C11.6728009,93.8280115 10.1987107,94.0043578 8.8729339,94.4714881 C8.10061917,94.7435118 8.51842878,96.1280185 9.3124479,95.9010194 C10.196902,95.647756 11.2694609,95.5971033 12.4089416,95.6927806 C9.97262325,101.666045 8.51662008,108.10644 7.04072121,114.376116 C6.67174649,115.950102 8.91996009,116.876858 9.36128279,115.269104 C11.1247649,108.862478 12.2208368,102.247613 14.5793811,96.0398453 C20.1773064,97.3868314 26.1695281,101.986845 22.6733118,107.581153 C20.0416539,111.798458 14.2104064,112.374397 10.7793033,115.627425 C9.7302575,116.621719 10.8154773,118.546521 12.1647672,117.852391 C17.2960479,115.209072 26.5113723,111.779697 25.977806,104.40129 C25.5762747,98.8932797 20.5173419,95.1037087 15.2811566,94.1244235" id="Fill-22" fill="#D45D00"></path>
                <path d="M32.4368522,100.563941 C30.8292475,104.545272 29.2065241,109.203034 29.0015839,113.619618 C28.9377501,114.985668 30.8225281,115.624415 31.1853731,114.179227 C32.2621491,109.896423 32.7761795,105.472303 33.9554256,101.195151 C34.2661956,100.070278 32.8652109,99.5012477 32.4368522,100.563941" id="Fill-24" fill="#D45D00"></path>
                <path d="M51.4129571,96.5729728 C49.5453803,98.7010611 48.7961988,101.836808 48.0308867,104.519654 C47.5164965,106.323982 47.0003141,108.137404 46.5002623,109.954464 C45.7421193,108.393866 45.0843452,106.753238 44.3118638,105.303591 C43.5662669,103.91033 42.6271016,101.749502 40.8688552,101.482127 C39.9727051,101.345711 39.6805602,102.735334 40.5193566,103.039087 C40.6000101,103.068189 40.6806637,103.135488 40.7631095,103.217337 C40.5785025,103.237345 40.3992725,103.331927 40.2666423,103.541098 C38.4653806,106.394918 37.3218931,110.498309 37.004656,113.855959 C36.8953257,115.010947 38.7449795,115.522052 39.0245783,114.323411 C39.7898905,111.049429 40.5175643,107.744527 41.5087063,104.530568 C42.1790266,106.14937 42.7704857,108.572116 42.9999001,109.194173 C43.7759661,111.300435 44.5090168,113.54675 45.8227729,115.38018 C46.6203464,116.493334 48.2728472,115.976772 48.7370529,114.859981 C49.8715789,112.131662 50.4110613,109.132331 51.1835427,106.285786 C51.9542317,103.446516 53.2070496,100.745481 53.938308,97.9153054 C54.3612909,96.271039 52.5098448,95.325222 51.4129571,96.5729728" id="Fill-26" fill="#D45D00"></path>
                <path d="M62.3040734,100.042815 C58.0329623,99.1768835 57.7032425,111.707202 58.1492219,113.989444 C58.4636946,115.602058 60.9242053,115.158084 60.7374275,113.550975 C60.5030024,111.543922 60.6707212,109.408448 60.8594048,107.405065 C60.9394524,106.570322 61.1910306,101.675609 62.3669679,101.550856 C63.3237273,101.448118 63.1083611,100.206094 62.3040734,100.042815" id="Fill-28" fill="#D45D00"></path>
                <path d="M83.5088871,97.3372699 C79.5059458,101.017131 80.4459603,108.271978 77.6889554,112.73197 C77.6166466,112.851565 77.5888355,112.936202 77.575857,113.004279 C77.5406296,112.954601 77.4905697,112.901243 77.4015742,112.836846 C76.8472067,112.430221 76.5097657,111.898481 76.1686164,111.313383 C75.3695114,109.948155 74.894869,108.360294 74.4387674,106.858911 C73.8250696,104.827628 73.4041952,102.463317 72.4104127,100.51851 C72.4270994,100.428353 72.4382238,100.334517 72.4549104,100.2462 C72.6977938,98.9932075 70.5897141,98.5074658 70.2448567,99.7457391 C69.5959316,102.076931 69.1843276,104.450442 68.6077113,106.798193 C68.0181164,109.206663 67.0039391,111.363061 66.1047142,113.657455 C65.5039949,115.191957 67.6417398,116.209439 68.6077113,114.958286 C70.7028125,112.242548 71.2979696,108.803718 71.7318224,105.379607 C72.6180688,110.378698 73.836194,116.768778 78.3545672,115.924249 C80.876105,115.453227 81.6918966,111.517615 82.3018863,109.54337 C83.3939346,106.005183 84.2023099,102.310602 85.8654124,98.9748081 C86.5328783,97.6334987 84.5545836,96.378666 83.5088871,97.3372699" id="Fill-30" fill="#D45D00"></path>
            </g>
        </g>
    </g>
</svg>